<svg width="35" height="35" viewBox="0 0 35 35" fill="none" xmlns="http://www.w3.org/2000/svg">
<path fill-rule="evenodd" clip-rule="evenodd" d="M17.3417 0C8.27081 -0.00683594 0.729767 6.98309 0.049469 16.0284C-0.630859 25.0737 5.77985 33.113 14.7497 34.463L14.7497 21.934H10.4597V17.376H14.7507V14.343C14.7507 9.32098 17.1967 7.11798 21.3707 7.11798C22.5597 7.10205 23.7483 7.17419 24.9266 7.33398L24.9267 11.313H22.0797C20.3087 11.313 19.6897 12.992 19.6897 14.886V17.377H24.8817L24.1817 21.934H19.6887V34.5C28.7182 33.2645 35.2478 25.2464 34.6293 16.1538C34.0107 7.06116 26.4553 0.00128174 17.3417 0H17.3417Z" fill="#4267B2"/>
</svg>
