<?xml version="1.0" encoding="UTF-8"?>
<svg xmlns="http://www.w3.org/2000/svg" xmlns:xlink="http://www.w3.org/1999/xlink" width="50px" height="50px" viewBox="0 0 50 50" version="1.1">
<g id="surface1">
<path style=" stroke:none;fill-rule:nonzero;fill:rgb(100%,60%,6.666667%);fill-opacity:1;" d="M 50 25 C 50 38.808594 38.808594 50 25 50 C 11.191406 50 0 38.808594 0 25 C 0 11.191406 11.191406 0 25 0 C 38.808594 0 50 11.191406 50 25 Z M 50 25 "/>
<path style=" stroke:none;fill-rule:nonzero;fill:rgb(92.941176%,53.333333%,0%);fill-opacity:1;" d="M 25 0 C 23.894531 0 22.804688 0.0742188 21.738281 0.210938 C 34.003906 1.808594 43.476562 12.296875 43.476562 25 C 43.476562 37.703125 34.003906 48.191406 21.738281 49.789062 C 22.804688 49.925781 23.894531 50 25 50 C 38.808594 50 50 38.808594 50 25 C 50 11.191406 38.808594 0 25 0 Z M 25 0 "/>
<path style=" stroke:none;fill-rule:nonzero;fill:rgb(98.823529%,98.823529%,98.823529%);fill-opacity:1;" d="M 15.21875 39.183594 C 12.789062 39.183594 10.816406 37.210938 10.816406 34.78125 C 10.816406 32.355469 12.789062 30.378906 15.21875 30.378906 C 17.644531 30.378906 19.621094 32.355469 19.621094 34.78125 C 19.621094 37.210938 17.644531 39.183594 15.21875 39.183594 Z M 15.21875 39.183594 "/>
<path style=" stroke:none;fill-rule:nonzero;fill:rgb(98.823529%,98.823529%,98.823529%);fill-opacity:1;" d="M 24.402344 37.882812 L 24.402344 36.902344 C 24.402344 30.660156 19.339844 25.597656 13.097656 25.597656 L 12.117188 25.597656 C 12 25.597656 11.902344 25.5 11.902344 25.382812 L 11.902344 19.726562 C 11.902344 19.609375 12 19.511719 12.117188 19.511719 L 13.097656 19.511719 C 22.703125 19.511719 30.488281 27.296875 30.488281 36.902344 L 30.488281 37.882812 C 30.488281 38 30.390625 38.097656 30.273438 38.097656 L 24.617188 38.097656 C 24.5 38.097656 24.402344 38 24.402344 37.882812 Z M 24.402344 37.882812 "/>
<path style=" stroke:none;fill-rule:nonzero;fill:rgb(98.823529%,98.823529%,98.823529%);fill-opacity:1;" d="M 35.273438 37.882812 L 35.273438 36.902344 C 35.273438 24.65625 25.34375 14.726562 13.097656 14.726562 L 12.117188 14.726562 C 12 14.726562 11.902344 14.632812 11.902344 14.511719 L 11.902344 8.859375 C 11.902344 8.738281 12 8.640625 12.117188 8.640625 L 13.316406 8.640625 C 20.804688 8.640625 27.847656 11.558594 33.144531 16.855469 C 38.441406 22.152344 41.359375 29.195312 41.359375 36.683594 L 41.359375 37.882812 C 41.359375 38 41.261719 38.097656 41.140625 38.097656 L 35.488281 38.097656 C 35.367188 38.097656 35.273438 38 35.273438 37.882812 Z M 35.273438 37.882812 "/>
</g>
</svg>
